<svg width="153" height="36" viewBox="0 0 153 36" fill="none" xmlns="http://www.w3.org/2000/svg">
<path d="M81.5466 30.3365C81.5466 31.2907 81.3273 32.0584 80.8887 32.6394C80.45 33.2166 79.8613 33.5051 79.1225 33.5051C78.3337 33.5051 77.7238 33.2262 77.2929 32.6683L77.241 33.3897H76.2598V24.5244H77.3275V27.8316C77.7585 27.2967 78.353 27.0293 79.111 27.0293C79.869 27.0293 80.4635 27.316 80.8944 27.8893C81.3292 28.4626 81.5466 29.2476 81.5466 30.2441V30.3365ZM80.4789 30.2153C80.4789 29.4881 80.3384 28.9263 80.0575 28.53C79.7766 28.1336 79.3726 27.9355 78.8455 27.9355C78.1413 27.9355 77.6353 28.2625 77.3275 28.9167V31.6178C77.6546 32.2719 78.1644 32.599 78.857 32.599C79.3688 32.599 79.767 32.4008 80.0518 32.0045C80.3365 31.6082 80.4789 31.0118 80.4789 30.2153Z" fill="#818E9B"/>
<path d="M84.8711 31.8256L86.3256 27.1448H87.4684L84.9577 34.3536C84.5691 35.3925 83.9515 35.9119 83.105 35.9119L82.903 35.8946L82.5047 35.8196V34.9538L82.7933 34.9769C83.155 34.9769 83.4359 34.9038 83.636 34.7576C83.8399 34.6114 84.0073 34.344 84.1381 33.9553L84.3747 33.3204L82.1469 27.1448H83.3128L84.8711 31.8256Z" fill="#818E9B"/>
<path d="M91.4046 33.3897V24.9861H93.8865C94.6291 24.9861 95.2871 25.1516 95.8604 25.4825C96.4376 25.8134 96.8839 26.2829 97.1994 26.8908C97.5149 27.4988 97.6727 28.1952 97.6727 28.9801V29.4015C97.6727 30.198 97.513 30.8983 97.1936 31.5024C96.8781 32.1065 96.426 32.5721 95.8373 32.8991C95.2524 33.2262 94.581 33.3897 93.823 33.3897H91.4046ZM92.8649 26.1636V32.2238H93.8172C94.5829 32.2238 95.1697 31.9853 95.5776 31.5081C95.9893 31.0272 96.199 30.3384 96.2067 29.4419V28.9744C96.2067 28.0625 96.0085 27.366 95.6122 26.885C95.2159 26.4041 94.6406 26.1636 93.8865 26.1636H92.8649Z" fill="#818E9B"/>
<path d="M98.7289 30.2095C98.7289 29.5977 98.8501 29.0475 99.0925 28.5588C99.3349 28.0663 99.6755 27.6892 100.114 27.4276C100.553 27.1621 101.057 27.0293 101.626 27.0293C102.469 27.0293 103.152 27.3006 103.675 27.8431C104.202 28.3857 104.487 29.1052 104.529 30.0017L104.535 30.3307C104.535 30.9464 104.416 31.4966 104.177 31.9814C103.943 32.4662 103.604 32.8414 103.162 33.1069C102.723 33.3724 102.215 33.5051 101.638 33.5051C100.757 33.5051 100.051 33.2127 99.5196 32.6278C98.9925 32.0391 98.7289 31.2561 98.7289 30.2788V30.2095ZM100.131 30.3307C100.131 30.9733 100.264 31.4774 100.53 31.8429C100.795 32.2046 101.165 32.3854 101.638 32.3854C102.111 32.3854 102.479 32.2007 102.74 31.8314C103.006 31.462 103.138 30.9214 103.138 30.2095C103.138 29.5785 103.002 29.0783 102.729 28.7089C102.459 28.3395 102.092 28.1548 101.626 28.1548C101.168 28.1548 100.805 28.3376 100.535 28.7031C100.266 29.0648 100.131 29.6073 100.131 30.3307Z" fill="#818E9B"/>
<path d="M108.287 32.3854C108.637 32.3854 108.927 32.2835 109.158 32.0795C109.389 31.8756 109.512 31.6236 109.528 31.3234H110.849C110.834 31.7121 110.713 32.0757 110.486 32.4143C110.259 32.7491 109.951 33.0146 109.562 33.2108C109.174 33.407 108.754 33.5051 108.304 33.5051C107.431 33.5051 106.738 33.2223 106.226 32.6567C105.715 32.0911 105.459 31.31 105.459 30.3134V30.1691C105.459 29.2187 105.713 28.4588 106.221 27.8893C106.728 27.316 107.421 27.0293 108.298 27.0293C109.041 27.0293 109.645 27.2467 110.111 27.6815C110.58 28.1125 110.826 28.68 110.849 29.3842H109.528C109.512 29.0263 109.389 28.732 109.158 28.5011C108.931 28.2702 108.641 28.1548 108.287 28.1548C107.833 28.1548 107.483 28.3203 107.236 28.6512C106.99 28.9782 106.865 29.4765 106.861 30.146V30.3711C106.861 31.0483 106.982 31.5543 107.225 31.8891C107.471 32.22 107.825 32.3854 108.287 32.3854Z" fill="#818E9B"/>
<path d="M117.377 30.3307C117.377 31.2965 117.158 32.068 116.719 32.6452C116.281 33.2185 115.692 33.5051 114.953 33.5051C114.268 33.5051 113.72 33.28 113.308 32.8299V35.7907H111.906V27.1448H113.199L113.256 27.7796C113.668 27.2794 114.228 27.0293 114.936 27.0293C115.698 27.0293 116.294 27.3141 116.725 27.8835C117.16 28.4492 117.377 29.236 117.377 30.2441V30.3307ZM115.98 30.2095C115.98 29.5862 115.855 29.0917 115.605 28.7262C115.359 28.3607 115.005 28.1779 114.543 28.1779C113.97 28.1779 113.558 28.4145 113.308 28.8878V31.6582C113.562 32.143 113.978 32.3854 114.555 32.3854C115.001 32.3854 115.349 32.2065 115.6 31.8487C115.853 31.487 115.98 30.9406 115.98 30.2095Z" fill="#818E9B"/>
<path d="M120.061 33.3897H118.659V24.5244H120.061V33.3897Z" fill="#818E9B"/>
<path d="M125.325 33.3897C125.263 33.2704 125.209 33.0761 125.163 32.8068C124.717 33.2724 124.17 33.5051 123.524 33.5051C122.897 33.5051 122.385 33.3262 121.989 32.9684C121.592 32.6105 121.394 32.168 121.394 31.6409C121.394 30.9752 121.641 30.4654 122.133 30.1114C122.629 29.7536 123.337 29.5746 124.257 29.5746H125.117V29.1648C125.117 28.8416 125.027 28.5838 124.846 28.3914C124.665 28.1952 124.39 28.0971 124.02 28.0971C123.701 28.0971 123.439 28.1779 123.235 28.3395C123.032 28.4973 122.93 28.6993 122.93 28.9455H121.527C121.527 28.6031 121.641 28.2837 121.868 27.9874C122.095 27.6873 122.402 27.4526 122.791 27.2833C123.184 27.114 123.62 27.0293 124.101 27.0293C124.832 27.0293 125.415 27.214 125.85 27.5834C126.285 27.9489 126.508 28.4645 126.52 29.1302V31.9468C126.52 32.5086 126.598 32.9568 126.756 33.2916V33.3897H125.325ZM123.784 32.3797C124.061 32.3797 124.321 32.3123 124.563 32.1777C124.809 32.043 124.994 31.8621 125.117 31.6351V30.4577H124.361C123.841 30.4577 123.451 30.5481 123.189 30.729C122.928 30.9098 122.797 31.1657 122.797 31.4966C122.797 31.7659 122.885 31.9814 123.062 32.143C123.243 32.3008 123.484 32.3797 123.784 32.3797Z" fill="#818E9B"/>
<path d="M129.29 27.1448L129.33 27.8662C129.792 27.3083 130.398 27.0293 131.148 27.0293C132.449 27.0293 133.111 27.7739 133.134 29.263V33.3897H131.731V29.3438C131.731 28.9474 131.645 28.655 131.472 28.4665C131.302 28.2741 131.023 28.1779 130.635 28.1779C130.069 28.1779 129.648 28.4338 129.371 28.9455V33.3897H127.968V27.1448H129.29Z" fill="#818E9B"/>
<path d="M135.87 27.1448L135.91 27.8662C136.372 27.3083 136.978 27.0293 137.728 27.0293C139.029 27.0293 139.691 27.7739 139.714 29.263V33.3897H138.311V29.3438C138.311 28.9474 138.225 28.655 138.051 28.4665C137.882 28.2741 137.603 28.1779 137.214 28.1779C136.649 28.1779 136.228 28.4338 135.95 28.9455V33.3897H134.548V27.1448H135.87Z" fill="#818E9B"/>
<path d="M143.898 33.5051C143.009 33.5051 142.288 33.2262 141.734 32.6683C141.183 32.1065 140.908 31.36 140.908 30.4288V30.2557C140.908 29.6323 141.028 29.0763 141.266 28.5877C141.509 28.0952 141.847 27.7123 142.282 27.4391C142.717 27.1659 143.202 27.0293 143.736 27.0293C144.587 27.0293 145.243 27.3006 145.705 27.8431C146.17 28.3857 146.403 29.1533 146.403 30.146V30.7117H142.322C142.365 31.2273 142.536 31.6351 142.836 31.9352C143.14 32.2354 143.521 32.3854 143.979 32.3854C144.621 32.3854 145.145 32.1257 145.549 31.6063L146.305 32.3277C146.055 32.701 145.72 32.9915 145.301 33.1992C144.885 33.4032 144.418 33.5051 143.898 33.5051ZM143.731 28.1548C143.346 28.1548 143.034 28.2895 142.796 28.5588C142.561 28.8282 142.411 29.2033 142.345 29.6843H145.018V29.5804C144.987 29.111 144.862 28.757 144.643 28.5184C144.423 28.276 144.119 28.1548 143.731 28.1548Z" fill="#818E9B"/>
<path d="M150.766 28.4261C150.582 28.3953 150.391 28.3799 150.195 28.3799C149.552 28.3799 149.12 28.6262 148.896 29.1187V33.3897H147.494V27.1448H148.833L148.868 27.8431C149.206 27.3006 149.676 27.0293 150.276 27.0293C150.476 27.0293 150.641 27.0563 150.772 27.1101L150.766 28.4261Z" fill="#818E9B"/>
<path d="M142.712 0C148.3 0 152.051 4.38136 152.051 9.47081C152.051 14.5603 148.248 18.9938 142.66 18.9938C137.071 18.9938 133.32 14.6132 133.32 9.52318C133.32 4.43383 137.124 0 142.712 0ZM123.482 0.315362C127.627 0.315362 130.355 2.5183 130.355 6.16535C130.355 10.1528 127.05 12.1988 123.142 12.1988H118.682V18.679H116.609V0.315362H123.482ZM72.3785 0.315075V2.22993H66.2128V18.6789H64.114V2.22993H57.9492V0.315075H72.3785ZM89.5353 0.315362V2.20351H78.3332V8.47389H88.3544V10.3633H78.3332V16.7906H89.6664V18.6789H76.2604V0.315362H89.5353ZM95.936 0.315362L102.626 10.3368L109.316 0.315362H111.415V18.6789H109.342V3.80454L102.652 13.6419H102.547L95.8577 3.83049V18.6789H93.8376V0.315362H95.936ZM149.605 8.63013H142.392V10.4202H149.605V8.63013ZM123.325 2.23032H118.682V10.3103H123.22C126.263 10.3103 128.257 8.68374 128.257 6.24453C128.257 3.5943 126.29 2.23032 123.325 2.23032Z" fill="#818E9B"/>
<path d="M46.802 0C52.389 0 56.1412 4.38136 56.1412 9.47081C56.1412 14.5603 52.3378 18.9938 46.7498 18.9938C41.1615 18.9938 37.4101 14.6132 37.4101 9.52318C37.4101 4.43383 41.2141 0 46.802 0ZM20.0954 0.314692V10.8609C20.0954 14.8227 22.1948 17.053 25.7094 17.053C29.0944 17.053 31.2455 15.0062 31.2455 10.9928V0.314692H33.3179V10.8346C33.3179 16.1869 30.2486 18.9678 25.6575 18.9678C21.1187 18.9678 18.0231 16.1869 18.0231 10.9928V0.314692H20.0954ZM14.4294 0.315075V2.22993H8.26365V18.6789H6.16487V2.22993H0V0.315075H14.4294ZM47.7702 2.46765H45.9802V9.68076H47.7702V2.46765Z" fill="#00C3A5"/>
</svg>
